<svg xmlns="http://www.w3.org/2000/svg" viewBox="0 0 604.53 411.57"><defs><style>.cls-1{fill:#fff;}</style></defs><g id="Livello_37" data-name="Livello 37"><path class="cls-1" d="M140.15,30.61s-59.9,9.07-63.53,56.27,63.53,89,63.53,89,43.57,23.6,39.94,78.06-39.94,81.69-39.94,81.69l-34.49-38.12-1.81-87.13,52.64-47.2-29-29L49.39,206.69l10.89,20v56.28l-9.08,20,89,78.06s88.95-63.54,88.95-128.89-62.38-113.41-88.95-132.52C109.39,97.44,102,56,140.15,30.61Z"/><path class="cls-1" d="M142.67,214a50.82,50.82,0,0,1-10.44,28.14,47.58,47.58,0,0,1-9.62,9.22,88.43,88.43,0,0,1,7.2,9.71,91.54,91.54,0,0,1,12.86,33A80.65,80.65,0,0,1,155,260.79a78.56,78.56,0,0,1,7-9.1,49.15,49.15,0,0,1-9.71-9.83A51.47,51.47,0,0,1,142.67,214Z"/><path class="cls-1" d="M259,162.37V108.51h11.92c7.89,0,13.5.62,17.14,1.92a23.63,23.63,0,0,1,12.3,9.57,28.89,28.89,0,0,1,4.41,16.08,28.36,28.36,0,0,1-3.49,14.2,22.67,22.67,0,0,1-9.17,9.15c-3.72,1.95-8.93,2.94-15.51,2.94ZM271.08,155c6.93,0,11.76-.43,14.36-1.26a15.74,15.74,0,0,0,8.43-6.27A19.74,19.74,0,0,0,297,136.17a20.83,20.83,0,0,0-3.37-12,16.9,16.9,0,0,0-9.32-6.7c-3.07-.94-8.28-1.41-15.49-1.41h-2.34V155Z"/><path class="cls-1" d="M260.24,161.08V109.79h10.63q11.5,0,16.7,1.85a22.31,22.31,0,0,1,11.67,9.07,27.53,27.53,0,0,1,4.2,15.37,27,27,0,0,1-3.33,13.57,21.33,21.33,0,0,1-8.65,8.64q-5.31,2.79-14.9,2.79Zm4.91-4.84h5.93q10.64,0,14.75-1.33a17,17,0,0,0,9.1-6.77,20.88,20.88,0,0,0,3.31-12,21.9,21.9,0,0,0-3.59-12.68,18.06,18.06,0,0,0-10-7.21q-4.81-1.47-15.87-1.47h-3.63Z"/><path class="cls-1" d="M330.48,163.34c-6.55,0-11.77-2.19-15.49-6.53a22.07,22.07,0,0,1-.85-28.25,19.43,19.43,0,0,1,16.06-7.68,20,20,0,0,1,16.51,7.85,21.89,21.89,0,0,1,4.46,13.76v1.29H317.11a13.65,13.65,0,0,0,3.79,8.66,12.12,12.12,0,0,0,9.16,3.83,15.2,15.2,0,0,0,5.2-.92,13.66,13.66,0,0,0,4.26-2.44,21.76,21.76,0,0,0,3.89-5.08l.63-1,6.32,3.32-.58,1.13a23.86,23.86,0,0,1-5,6.78,19.93,19.93,0,0,1-6.38,4A22.15,22.15,0,0,1,330.48,163.34ZM342.8,137a13.11,13.11,0,0,0-2.14-4.16,12.36,12.36,0,0,0-4.48-3.4,13.85,13.85,0,0,0-5.91-1.31,12.56,12.56,0,0,0-8.74,3.26A13.53,13.53,0,0,0,318,137Z"/><path class="cls-1" d="M344.51,148.5l4.12,2.16a22.29,22.29,0,0,1-4.68,6.41,18.6,18.6,0,0,1-6,3.72,21,21,0,0,1-7.5,1.27q-9.28,0-14.52-6.08a20.55,20.55,0,0,1-5.23-13.76,20.27,20.27,0,0,1,4.43-12.87,18.11,18.11,0,0,1,15-7.18,18.72,18.72,0,0,1,15.5,7.36,20.51,20.51,0,0,1,4.18,13H315.75A15.41,15.41,0,0,0,320,153.33a13.48,13.48,0,0,0,10.09,4.23,16.06,16.06,0,0,0,5.64-1,14.78,14.78,0,0,0,4.66-2.67A22.62,22.62,0,0,0,344.51,148.5Zm0-10.22a16.28,16.28,0,0,0-2.84-6.24,13.54,13.54,0,0,0-4.94-3.77,15.18,15.18,0,0,0-6.46-1.43,13.94,13.94,0,0,0-9.6,3.59,16.29,16.29,0,0,0-4.43,7.85Z"/><path class="cls-1" d="M385.91,162.37V143a44.49,44.49,0,0,0-.51-8.45,8.32,8.32,0,0,0-2.8-5,8.63,8.63,0,0,0-5.48-1.63,10.75,10.75,0,0,0-7.11,2.63,12.41,12.41,0,0,0-4.2,6.59,50.15,50.15,0,0,0-.66,10v15.2H357.7V121.86h7.45v4.61a19.51,19.51,0,0,1,4.59-3.49,17.2,17.2,0,0,1,8.35-2.1,14.75,14.75,0,0,1,8.26,2.38,14.2,14.2,0,0,1,5.34,6.39c1.12,2.62,1.67,6.52,1.67,11.91v20.81Z"/><path class="cls-1" d="M359,123.15h4.88V130a20.18,20.18,0,0,1,6.48-5.84,15.82,15.82,0,0,1,7.74-1.94,13.44,13.44,0,0,1,7.55,2.16,12.88,12.88,0,0,1,4.87,5.82q1.56,3.67,1.57,11.41v19.52h-4.89V143a45,45,0,0,0-.54-8.76,9.65,9.65,0,0,0-3.25-5.66,9.83,9.83,0,0,0-6.28-1.9,12,12,0,0,0-7.94,2.93,13.79,13.79,0,0,0-4.62,7.25,50.92,50.92,0,0,0-.69,10.32v13.91H359Z"/><path class="cls-1" d="M400.52,162.37V121.86H408v40.51Zm3.71-45.5a5.33,5.33,0,0,1-5.28-5.3,5.19,5.19,0,0,1,1.55-3.77,5.28,5.28,0,0,1,7.49,0,5.19,5.19,0,0,1,1.55,3.77,5.33,5.33,0,0,1-5.31,5.3Z"/><path class="cls-1" d="M404.23,107.53a3.84,3.84,0,0,1,2.84,1.18,3.89,3.89,0,0,1,1.18,2.86,4,4,0,0,1-8,0,3.9,3.9,0,0,1,1.19-2.86A3.81,3.81,0,0,1,404.23,107.53Zm-2.43,15.62h4.89v37.93H401.8Z"/><path class="cls-1" d="M424.45,163.34a15.69,15.69,0,0,1-6.83-1.55,14.93,14.93,0,0,1-5.4-4.31l-.65-.84,4.74-5.38,1,1.09c2.26,2.55,4.54,3.79,7,3.79a5.86,5.86,0,0,0,4.13-1.55,4.55,4.55,0,0,0,1.65-3.48,4.36,4.36,0,0,0-1.07-2.9c-.54-.64-2-1.81-5.74-3.73s-6.09-3.72-7.46-5.63a11.2,11.2,0,0,1-2.09-6.64A10.87,10.87,0,0,1,417,124.1a11.62,11.62,0,0,1,8.36-3.22c3.82,0,7.67,1.85,11.44,5.49l.93.9-4.94,5.09-.92-.9c-2.35-2.28-4.62-3.44-6.76-3.44a4.55,4.55,0,0,0-3.2,1.23,3.6,3.6,0,0,0-1.28,2.72,4.18,4.18,0,0,0,1.1,2.7c.56.69,2,1.89,5.46,3.69,3.86,2,6.43,3.9,7.86,5.81a11.23,11.23,0,0,1,2.18,6.73,12,12,0,0,1-3.67,8.83A12.47,12.47,0,0,1,424.45,163.34Z"/><path class="cls-1" d="M435.91,127.3l-3.14,3.24c-2.61-2.54-5.17-3.8-7.66-3.8a5.77,5.77,0,0,0-4.07,1.57,4.83,4.83,0,0,0-1.7,3.66,5.45,5.45,0,0,0,1.4,3.52q1.39,1.71,5.87,4,5.44,2.82,7.41,5.44a9.91,9.91,0,0,1,1.92,6,10.69,10.69,0,0,1-3.28,7.92,11.23,11.23,0,0,1-8.21,3.24,14.38,14.38,0,0,1-6.27-1.43,13.59,13.59,0,0,1-4.94-3.94l3.07-3.49q3.74,4.23,7.93,4.22a7.16,7.16,0,0,0,5-1.88,5.84,5.84,0,0,0,2.06-4.43,5.67,5.67,0,0,0-1.36-3.73q-1.37-1.6-6.15-4-5.13-2.66-7-5.23a9.92,9.92,0,0,1-1.85-5.9A9.58,9.58,0,0,1,417.9,125a10.27,10.27,0,0,1,7.46-2.86Q430.6,122.17,435.91,127.3Z"/><path class="cls-1" d="M462.46,163.34c-6.55,0-11.77-2.19-15.5-6.53a21.87,21.87,0,0,1-5.54-14.59,21.63,21.63,0,0,1,4.7-13.66,19.43,19.43,0,0,1,16.06-7.68,20,20,0,0,1,16.51,7.85,21.89,21.89,0,0,1,4.46,13.76v1.29H449.08a13.76,13.76,0,0,0,3.79,8.66,12.16,12.16,0,0,0,9.17,3.83,15.1,15.1,0,0,0,5.19-.92,13.44,13.44,0,0,0,4.26-2.44,21.48,21.48,0,0,0,3.9-5.08l.62-1,6.32,3.32-.57,1.13a24,24,0,0,1-5,6.78,19.93,19.93,0,0,1-6.38,4A22.19,22.19,0,0,1,462.46,163.34ZM474.78,137a13.53,13.53,0,0,0-2.14-4.16,12.36,12.36,0,0,0-4.48-3.4,13.92,13.92,0,0,0-5.91-1.31,12.56,12.56,0,0,0-8.74,3.26A13.64,13.64,0,0,0,450,137Z"/><path class="cls-1" d="M476.49,148.5l4.12,2.16a22.29,22.29,0,0,1-4.68,6.41,18.6,18.6,0,0,1-6,3.72,21,21,0,0,1-7.5,1.27q-9.29,0-14.52-6.08a20.56,20.56,0,0,1-5.24-13.76,20.28,20.28,0,0,1,4.44-12.87,18.11,18.11,0,0,1,15-7.18,18.69,18.69,0,0,1,15.49,7.36,20.45,20.45,0,0,1,4.19,13H447.73A15.41,15.41,0,0,0,452,153.33,13.45,13.45,0,0,0,462,157.56a16.06,16.06,0,0,0,5.64-1,14.89,14.89,0,0,0,4.66-2.67A22.88,22.88,0,0,0,476.49,148.5Zm0-10.22a16.28,16.28,0,0,0-2.84-6.24,13.54,13.54,0,0,0-4.94-3.77,15.18,15.18,0,0,0-6.46-1.43,13.9,13.9,0,0,0-9.6,3.59,16.22,16.22,0,0,0-4.44,7.85Z"/><path class="cls-1" d="M259.09,248.06V194.2h11.4c4.29,0,7.53.51,9.9,1.55a12.79,12.79,0,0,1,5.74,4.94,13.54,13.54,0,0,1,2.1,7.35,13.35,13.35,0,0,1-1.84,6.88,13.17,13.17,0,0,1-3.2,3.6,17,17,0,0,1,4.19,2.5,14,14,0,0,1,3.68,4.87,14.58,14.58,0,0,1,1.32,6.17,15.12,15.12,0,0,1-4.92,11.38c-3.24,3.07-7.61,4.62-13,4.62Zm12.66-7.59c3.57,0,6.17-.34,7.75-1a8,8,0,0,0,3.64-3,7.67,7.67,0,0,0-.55-9.45,10.1,10.1,0,0,0-5.47-3.08,44.2,44.2,0,0,0-8.82-.6h-1.62v17.1Zm-3.42-24.83a21.92,21.92,0,0,0,7.39-.9,7.17,7.17,0,0,0,3.39-2.67,6.82,6.82,0,0,0,1.25-4,5.46,5.46,0,0,0-2-4.53c-1.4-1.14-3.76-1.72-7-1.72h-4.66v13.85Z"/><path class="cls-1" d="M260.38,195.48h10.11c4.07,0,7.19.49,9.38,1.45a11.57,11.57,0,0,1,5.18,4.45A12.25,12.25,0,0,1,287,208a12,12,0,0,1-1.67,6.22,12.33,12.33,0,0,1-4.89,4.55,19,19,0,0,1,6.15,3.19,12.75,12.75,0,0,1,3.36,4.43,13.26,13.26,0,0,1,1.2,5.63,13.8,13.8,0,0,1-4.52,10.44q-4.51,4.27-12.12,4.28H260.38Zm5,5v16.43h2.93a22.75,22.75,0,0,0,7.87-1,8.54,8.54,0,0,0,4-3.13,8.24,8.24,0,0,0,1.47-4.76,6.76,6.76,0,0,0-2.47-5.53q-2.46-2-7.84-2Zm0,21.59v19.66h6.36q5.61,0,8.24-1.09a9.45,9.45,0,0,0,4.21-3.44,9,9,0,0,0-.65-11,11.49,11.49,0,0,0-6.14-3.48,44.76,44.76,0,0,0-9.12-.63Z"/><path class="cls-1" d="M297.31,248.06V207.55h7.55v3.16a15.76,15.76,0,0,1,2.72-2.3,10.56,10.56,0,0,1,5.86-1.83,10.28,10.28,0,0,1,5,1.45l1.17.65-3.84,6.21-1-.44a5.28,5.28,0,0,0-2.07-.56,5.78,5.78,0,0,0-3.85,1.68,11.54,11.54,0,0,0-3.06,5.61c-.58,2-.87,6.34-.87,12.77v14.11Z"/><path class="cls-1" d="M298.59,208.84h5v5.54a17.75,17.75,0,0,1,4.71-4.9,9.29,9.29,0,0,1,5.16-1.62,8.87,8.87,0,0,1,4.32,1.29l-2.54,4.12a6.73,6.73,0,0,0-2.59-.67,7,7,0,0,0-4.7,2,12.69,12.69,0,0,0-3.45,6.22c-.61,2.16-.91,6.54-.91,13.11v12.84h-5Z"/><path class="cls-1" d="M337.93,249a19,19,0,0,1-9.93-2.43,15.26,15.26,0,0,1-6.05-6.85c-1.31-2.88-1.94-7-1.94-12.65V207.55h7.45v19a37.28,37.28,0,0,0,.65,8.58,8.65,8.65,0,0,0,3.49,4.8,10.94,10.94,0,0,0,6.3,1.79,10.59,10.59,0,0,0,6.21-1.74,8.78,8.78,0,0,0,3.44-4.53c.3-.91.67-3.2.67-8.9v-19h7.55v19.91c0,5.47-.63,9.51-1.95,12.35a15.28,15.28,0,0,1-6,6.79A18.74,18.74,0,0,1,337.93,249Z"/><path class="cls-1" d="M321.29,208.84h4.88v17.71a38.11,38.11,0,0,0,.7,8.93,10,10,0,0,0,4,5.51,12.13,12.13,0,0,0,7,2,11.91,11.91,0,0,0,6.93-2,10,10,0,0,0,3.93-5.18c.49-1.46.73-4.57.73-9.31V208.84h5v18.62q0,7.84-1.83,11.82a14,14,0,0,1-5.51,6.22,20.1,20.1,0,0,1-18.48,0,13.87,13.87,0,0,1-5.55-6.27q-1.83-4-1.83-12.12Z"/><path class="cls-1" d="M392.26,248.06V228.68c0-5.28-.28-7.5-.51-8.45a8.31,8.31,0,0,0-2.81-5,8.61,8.61,0,0,0-5.48-1.62,10.67,10.67,0,0,0-7.1,2.63,12.31,12.31,0,0,0-4.21,6.58,50.38,50.38,0,0,0-.65,10v15.2H364V207.55h7.46v4.62a19.32,19.32,0,0,1,4.58-3.5,17.31,17.31,0,0,1,8.36-2.09A14.74,14.74,0,0,1,392.7,209a14.24,14.24,0,0,1,5.34,6.39c1.12,2.62,1.67,6.52,1.67,11.91v20.81Z"/><path class="cls-1" d="M365.33,208.84h4.88v6.8a20.42,20.42,0,0,1,6.49-5.84,15.93,15.93,0,0,1,7.74-1.94A13.46,13.46,0,0,1,392,210a12.88,12.88,0,0,1,4.86,5.83q1.57,3.66,1.57,11.4v19.53h-4.88v-18.1a44.79,44.79,0,0,0-.54-8.75,9.63,9.63,0,0,0-3.26-5.67,9.81,9.81,0,0,0-6.28-1.9,12.06,12.06,0,0,0-7.93,2.93,13.67,13.67,0,0,0-4.62,7.25,50.7,50.7,0,0,0-.7,10.32v13.92h-4.88Z"/><path class="cls-1" d="M406.86,248.06V207.55h7.46v40.51Zm3.71-45.5a5.09,5.09,0,0,1-3.72-1.56,5.29,5.29,0,0,1,0-7.5,5.07,5.07,0,0,1,3.72-1.57,5.32,5.32,0,0,1,0,10.63Z"/><path class="cls-1" d="M410.57,193.22a4,4,0,1,1,0,8.05,3.82,3.82,0,0,1-2.81-1.18,4,4,0,0,1,0-5.69A3.82,3.82,0,0,1,410.57,193.22Zm-2.42,15.62H413v37.94h-4.88Z"/><path class="cls-1" d="M287,335.05c-9.83,0-17.74-3.42-23.5-10.15a27.12,27.12,0,0,1-6.69-18.09,27.84,27.84,0,0,1,3.84-14.22,27.47,27.47,0,0,1,10.53-10.29,30.68,30.68,0,0,1,15-3.7A33.59,33.59,0,0,1,299,281.05a38.06,38.06,0,0,1,11.63,7.8l1,.94-5.86,5.55-.89-.87a29.45,29.45,0,0,0-9-6.13,24.09,24.09,0,0,0-9.45-2.08,22.55,22.55,0,0,0-10.87,2.81,20.39,20.39,0,0,0-8,7.56,19.61,19.61,0,0,0-2.82,10.07,20.11,20.11,0,0,0,2.92,10.35,20.92,20.92,0,0,0,8.09,7.71,23.48,23.48,0,0,0,11.38,2.83,19.4,19.4,0,0,0,12.58-4.17,16.07,16.07,0,0,0,5.76-9.3h-16.1V306.6H314v1.29c-.05,8.25-2.56,14.9-7.44,19.79S295.11,335.05,287,335.05Z"/><path class="cls-1" d="M309.72,289.79l-4,3.77a30.15,30.15,0,0,0-9.4-6.4,25.29,25.29,0,0,0-9.95-2.18,23.81,23.81,0,0,0-11.49,3,21.57,21.57,0,0,0-8.46,8,20.73,20.73,0,0,0-3,10.72,21.14,21.14,0,0,0,3.1,11,22.05,22.05,0,0,0,8.58,8.2,24.73,24.73,0,0,0,12,3,20.48,20.48,0,0,0,13.39-4.47A17.62,17.62,0,0,0,307,312.84H290.64v-4.95h22.11q-.08,11.88-7.06,18.88t-18.71,7q-14.22,0-22.52-9.69a25.75,25.75,0,0,1-6.38-17.26,26.5,26.5,0,0,1,3.66-13.57,26,26,0,0,1,10-9.81,29.22,29.22,0,0,1,14.43-3.54,32.12,32.12,0,0,1,12.28,2.35A36.8,36.8,0,0,1,309.72,289.79Z"/><path class="cls-1" d="M318.58,333.75v-40.5h7.56v3.16a15,15,0,0,1,2.71-2.31,10.62,10.62,0,0,1,5.87-1.83,10.16,10.16,0,0,1,4.95,1.46l1.17.65L337,300.59l-1-.45a5.47,5.47,0,0,0-2.07-.56,5.8,5.8,0,0,0-3.85,1.69,11.48,11.48,0,0,0-3.07,5.6c-.57,2-.85,6.34-.85,12.77v14.11Z"/><path class="cls-1" d="M319.86,294.53h5v5.55a17.47,17.47,0,0,1,4.71-4.9,9.29,9.29,0,0,1,5.16-1.62,8.9,8.9,0,0,1,4.32,1.29L336.49,299a6.79,6.79,0,0,0-2.58-.66,7.08,7.08,0,0,0-4.7,2,12.68,12.68,0,0,0-3.45,6.23q-.92,3.24-.91,13.11v12.83h-5Z"/><path class="cls-1" d="M360.94,334.73a19.85,19.85,0,0,1-14.68-6.23,20.91,20.91,0,0,1-6.06-15.1,20.59,20.59,0,0,1,6.12-14.93,20.11,20.11,0,0,1,14.76-6.2,19.24,19.24,0,0,1,9.05,2.13,19,19,0,0,1,4.76,3.58v-4.73h7.38v40.5h-7.38V329.2a20.76,20.76,0,0,1-5,3.51A19.93,19.93,0,0,1,360.94,334.73Zm.54-35.18a13.44,13.44,0,0,0-11.89,7,14.08,14.08,0,0,0,0,14.06,13.7,13.7,0,0,0,5.05,5.22,13.26,13.26,0,0,0,6.78,1.86,13.91,13.91,0,0,0,7-1.86,12.86,12.86,0,0,0,5-5,14.32,14.32,0,0,0,1.77-7.14,13.73,13.73,0,0,0-4-10.1A13,13,0,0,0,361.48,299.55Z"/><path class="cls-1" d="M381,294.53v37.94h-4.81V326a20.92,20.92,0,0,1-6.89,5.61,19.21,19.21,0,0,1-22.11-4,19.57,19.57,0,0,1-5.7-14.2,19.23,19.23,0,0,1,5.75-14,18.78,18.78,0,0,1,13.85-5.82,17.94,17.94,0,0,1,8.45,2,19.39,19.39,0,0,1,6.65,6v-7Zm-19.51,3.73a14.77,14.77,0,0,0-13,7.63,15.34,15.34,0,0,0,0,15.32,15,15,0,0,0,5.52,5.7,14.41,14.41,0,0,0,7.43,2,15.36,15.36,0,0,0,7.6-2,14.16,14.16,0,0,0,5.52-5.47,15.71,15.71,0,0,0,1.93-7.77,15.09,15.09,0,0,0-4.34-11A14.36,14.36,0,0,0,361.48,298.26Z"/><path class="cls-1" d="M390.76,347.63V293.25h7.45V298A19.53,19.53,0,0,1,403,294.4a19.11,19.11,0,0,1,9-2.13,20.1,20.1,0,0,1,14.75,6.2,20.58,20.58,0,0,1,6.11,14.93,20.91,20.91,0,0,1-6.06,15.1,20.45,20.45,0,0,1-23.56,4.21,21,21,0,0,1-5-3.5v18.42Zm20.81-48.08a13,13,0,0,0-9.74,4,13.73,13.73,0,0,0-4,10.1,14.38,14.38,0,0,0,1.77,7.14,12.79,12.79,0,0,0,5,5,14.07,14.07,0,0,0,7,1.86,13.13,13.13,0,0,0,6.73-1.86,13.78,13.78,0,0,0,5.05-5.22,14.08,14.08,0,0,0,0-14.06,13.41,13.41,0,0,0-11.87-7Z"/><path class="cls-1" d="M392,294.53h4.88v7a19.69,19.69,0,0,1,6.66-6,17.7,17.7,0,0,1,8.39-2,18.73,18.73,0,0,1,13.83,5.82,19.23,19.23,0,0,1,5.75,14,19.57,19.57,0,0,1-5.7,14.2,19.14,19.14,0,0,1-22.07,4,20.82,20.82,0,0,1-6.86-5.61v20.4H392Zm19.53,3.73a14.36,14.36,0,0,0-10.67,4.43,15.12,15.12,0,0,0-4.33,11,15.71,15.71,0,0,0,1.93,7.77,14.08,14.08,0,0,0,5.54,5.47,15.36,15.36,0,0,0,7.6,2,14.32,14.32,0,0,0,7.39-2,15,15,0,0,0,5.51-5.7,15.34,15.34,0,0,0,0-15.32,14.74,14.74,0,0,0-13-7.63Z"/><path class="cls-1" d="M467.6,333.75V314.37a44.93,44.93,0,0,0-.49-8.45,8.69,8.69,0,0,0-2.84-5,8.59,8.59,0,0,0-5.46-1.62A10.71,10.71,0,0,0,451.7,302a12.63,12.63,0,0,0-4.2,6.59,50,50,0,0,0-.65,10v15.19H439.4V278.6h7.45v19.28a20,20,0,0,1,4.62-3.52,17.16,17.16,0,0,1,8.32-2.09,14.84,14.84,0,0,1,8.26,2.37,14.19,14.19,0,0,1,5.33,6.38c1.13,2.61,1.68,6.51,1.68,11.92v20.81Z"/><path class="cls-1" d="M440.68,279.89h4.88v21.44a20.84,20.84,0,0,1,6.52-5.84,15.89,15.89,0,0,1,7.71-1.93,13.46,13.46,0,0,1,7.55,2.16,12.8,12.8,0,0,1,4.86,5.8q1.57,3.64,1.57,11.42v19.53h-4.88v-18.1a46.18,46.18,0,0,0-.52-8.75,10,10,0,0,0-3.3-5.67,9.79,9.79,0,0,0-6.26-1.9,12.06,12.06,0,0,0-7.93,2.93,13.75,13.75,0,0,0-4.62,7.26,50.37,50.37,0,0,0-.7,10.32v13.91h-4.88Z"/><path class="cls-1" d="M482.22,333.75v-40.5h7.45v40.5Zm3.7-45.5a5.08,5.08,0,0,1-3.72-1.56,5.31,5.31,0,0,1,0-7.5,5.26,5.26,0,0,1,7.48,0,5.29,5.29,0,0,1,0,7.5A5.12,5.12,0,0,1,485.92,288.25Z"/><path class="cls-1" d="M485.92,278.91a4,4,0,1,1-4,4,3.93,3.93,0,0,1,1.18-2.86A3.85,3.85,0,0,1,485.92,278.91Zm-2.42,15.62h4.88v37.94H483.5Z"/><path class="cls-1" d="M517.6,334.73a21.93,21.93,0,0,1-15.81-6.08,19.91,19.91,0,0,1-6.33-14.84,21.29,21.29,0,0,1,3-10.88,20.91,20.91,0,0,1,8.12-7.85A23.48,23.48,0,0,1,518,292.27a24.48,24.48,0,0,1,7.68,1.21,21.67,21.67,0,0,1,6.32,3.2,17.59,17.59,0,0,1,4.47,5.07l.65,1.08-5.94,3.7-.71-.94a14.87,14.87,0,0,0-12.66-6.15,14.45,14.45,0,0,0-10.61,4.1,13.18,13.18,0,0,0-4.19,9.91,14.13,14.13,0,0,0,1.94,7.16,13.44,13.44,0,0,0,5.28,5.19,15.69,15.69,0,0,0,7.62,1.86,15.29,15.29,0,0,0,12.64-6.17l.73-.93,5.94,3.91-.72,1.07a19.62,19.62,0,0,1-7.81,6.8A24.64,24.64,0,0,1,517.6,334.73Z"/><path class="cls-1" d="M535.35,302.41l-3.87,2.41a16.21,16.21,0,0,0-13.69-6.66,15.8,15.8,0,0,0-11.51,4.46,14.55,14.55,0,0,0-4.58,10.83,15.34,15.34,0,0,0,2.11,7.8,14.75,14.75,0,0,0,5.78,5.68,16.9,16.9,0,0,0,8.24,2,16.66,16.66,0,0,0,13.65-6.66l3.87,2.54a18.3,18.3,0,0,1-7.31,6.36,23.36,23.36,0,0,1-10.44,2.26,20.62,20.62,0,0,1-14.92-5.72,18.63,18.63,0,0,1-5.93-13.92,19.94,19.94,0,0,1,2.77-10.23,19.49,19.49,0,0,1,7.62-7.37A22.21,22.21,0,0,1,518,293.56a23,23,0,0,1,7.26,1.15,20.1,20.1,0,0,1,6,3A16.48,16.48,0,0,1,535.35,302.41Z"/><path class="cls-1" d="M552.35,334.73a15.59,15.59,0,0,1-6.83-1.56,14.84,14.84,0,0,1-5.4-4.31l-.65-.84,4.73-5.37,1,1.08c2.25,2.55,4.54,3.79,7,3.79a5.89,5.89,0,0,0,4.13-1.54,4.55,4.55,0,0,0,1.65-3.49,4.43,4.43,0,0,0-1.07-2.9c-.54-.63-2-1.81-5.74-3.72s-6.09-3.72-7.46-5.63a11.18,11.18,0,0,1-2.09-6.64,10.87,10.87,0,0,1,3.34-8.11,11.57,11.57,0,0,1,8.35-3.22c3.83,0,7.68,1.84,11.45,5.48l.93.9-4.94,5.1-.92-.9c-2.35-2.29-4.63-3.44-6.76-3.44a4.49,4.49,0,0,0-3.2,1.23,3.54,3.54,0,0,0-1.28,2.71,4.21,4.21,0,0,0,1.1,2.71c.56.69,2,1.88,5.46,3.68,3.86,2,6.42,3.9,7.86,5.81a11.3,11.3,0,0,1,2.17,6.74,12,12,0,0,1-3.66,8.83A12.5,12.5,0,0,1,552.35,334.73Z"/><path class="cls-1" d="M563.8,298.68l-3.14,3.24q-3.92-3.8-7.65-3.8a5.8,5.8,0,0,0-4.07,1.57,4.83,4.83,0,0,0-1.7,3.66,5.45,5.45,0,0,0,1.4,3.53q1.4,1.69,5.87,4,5.44,2.82,7.41,5.43a9.94,9.94,0,0,1,1.92,6,10.73,10.73,0,0,1-3.28,7.91,11.23,11.23,0,0,1-8.21,3.25,14.38,14.38,0,0,1-6.27-1.43,13.69,13.69,0,0,1-4.94-3.94l3.07-3.49q3.74,4.21,7.93,4.22a7.14,7.14,0,0,0,5-1.89,5.82,5.82,0,0,0,2.06-4.42,5.65,5.65,0,0,0-1.36-3.73q-1.37-1.61-6.15-4-5.15-2.66-7-5.23a9.8,9.8,0,0,1-1.85-5.89,9.6,9.6,0,0,1,2.95-7.19,10.28,10.28,0,0,1,7.45-2.85Q558.5,293.56,563.8,298.68Z"/></g></svg>