<?xml version="1.0" encoding="UTF-8"?>
<svg version="1.1" xmlns="http://www.w3.org/2000/svg" width="418" height="508">
<path d="M0 0 C1.07702187 -0.00382555 2.15404374 -0.00765109 3.26370263 -0.01159257 C6.83749426 -0.0218308 10.41112245 -0.01794794 13.98492432 -0.01396179 C16.5616877 -0.01831338 19.13844978 -0.02349801 21.71520996 -0.02944946 C27.96742554 -0.04214518 34.21959807 -0.04399654 40.47182438 -0.0416492 C45.55912484 -0.03985988 50.64641233 -0.04162878 55.73371124 -0.04587364 C56.46016116 -0.04646883 57.18661109 -0.04706402 57.93507464 -0.04767724 C59.41129253 -0.04888911 60.88751043 -0.05010324 62.36372831 -0.05131962 C76.18272553 -0.0621757 90.00169829 -0.06004202 103.82069686 -0.05393478 C116.43181543 -0.04876903 129.04285668 -0.06001545 141.65395996 -0.07903299 C154.63600687 -0.0984582 167.61801729 -0.1066591 180.60007882 -0.10290974 C187.87525494 -0.10100457 195.1503653 -0.10341802 202.42552948 -0.11762428 C209.27106105 -0.13085746 216.11643615 -0.12821477 222.96196747 -0.11521339 C225.4643967 -0.11285802 227.96683694 -0.11554469 230.46925354 -0.12383652 C262.95282605 -0.22365205 262.95282605 -0.22365205 276.95465088 6.51069641 C277.61360352 6.81515686 278.27255615 7.11961731 278.95147705 7.43330383 C300.50952939 17.64086426 315.09578738 34.24012194 323.64215088 56.26069641 C326.88493627 66.46769249 327.79195239 76.41948902 327.78259277 87.06159973 C327.78704946 88.65975533 327.78704946 88.65975533 327.79159617 90.2901969 C327.80024513 93.84873082 327.80178821 97.40723095 327.80328369 100.96577454 C327.80791461 103.52224295 327.81293963 106.07871068 327.81832886 108.63517761 C327.83142966 115.5735737 327.83793075 122.51195873 327.84233952 129.45036507 C327.84510921 133.78970587 327.8493479 138.12904448 327.85384369 142.46838379 C327.86603179 154.50239675 327.87633153 166.53640795 327.87971878 178.57042694 C327.87993835 179.33963513 327.88015791 180.10884331 327.88038413 180.90136084 C327.88060241 181.67232506 327.88082069 182.44328929 327.88104558 183.23761606 C327.88148903 184.79967149 327.8819356 186.36172692 327.88238525 187.92378235 C327.88260668 188.69860244 327.88282811 189.47342253 327.88305625 190.27172202 C327.8869999 202.81195914 327.90444275 215.352138 327.92774478 227.89235264 C327.95152118 240.79290704 327.96392351 253.69343228 327.9650867 266.59400892 C327.96600001 273.82677354 327.97166498 281.05946224 327.98990631 288.29220581 C328.0070203 295.10156144 328.00851316 301.91077144 327.9997673 308.72014236 C327.99900013 311.20967113 328.00329715 313.6992078 328.01322556 316.18871689 C328.11623958 343.64468783 324.30684346 368.00231025 304.39605713 388.50679016 C289.43189772 403.47094957 270.92351387 413.39324826 249.3789171 413.53750741 C248.34924463 413.53441021 247.31957217 413.53131301 246.25869751 413.52812195 C245.14269783 413.53265306 244.02669814 413.53718417 242.87688029 413.54185259 C239.15324949 413.55446961 235.42976547 413.55287793 231.70611572 413.55122375 C229.02964744 413.55721075 226.35319046 413.56396061 223.67672729 413.57157898 C217.16976951 413.58814829 210.66284797 413.59368671 204.15587084 413.59480374 C198.86206323 413.5957563 193.5682675 413.59987696 188.27446365 413.60620499 C173.24113311 413.62380753 158.20783106 413.63304559 143.17449014 413.63154404 C141.96037918 413.63142417 141.96037918 413.63142417 140.72174072 413.63130188 C139.91133645 413.63122012 139.10093217 413.63113836 138.26597019 413.63105412 C125.14311121 413.63024185 112.02036719 413.64936706 98.89754145 413.67757861 C85.3991778 413.70636672 71.9008701 413.7201156 58.402475 413.71839106 C50.83383299 413.71772913 43.26531145 413.72313462 35.69669724 413.74474716 C29.25058808 413.76303735 22.80465396 413.7672426 16.35852997 413.75372832 C13.07553684 413.74723735 9.79294525 413.74915084 6.50997162 413.76443481 C-9.95523793 413.8360899 -24.76352215 413.43290263 -39.60784912 405.51069641 C-40.60087036 404.99527283 -40.60087036 404.99527283 -41.61395264 404.46943665 C-62.77585023 393.20207975 -76.34077413 375.91230691 -83.35784912 353.26069641 C-86.17178631 343.54761374 -86.50790277 333.53259858 -86.49156189 323.478302 C-86.49382745 322.43903539 -86.496093 321.39976878 -86.49842721 320.32900923 C-86.50472163 316.87108679 -86.50394079 313.413204 -86.50311279 309.95527649 C-86.50610714 307.46585541 -86.50951031 304.97643479 -86.51329041 302.48701477 C-86.52119226 296.44074384 -86.52434386 290.39448831 -86.52490278 284.34821365 C-86.52537943 279.42867106 -86.52744158 274.50913166 -86.53060341 269.58959007 C-86.53940185 255.61358514 -86.54402409 241.63758785 -86.54327293 227.66158012 C-86.54323298 226.90949113 -86.54319302 226.15740215 -86.54315186 225.38252258 C-86.54311097 224.62950549 -86.54307009 223.87648839 -86.54302797 223.1006526 C-86.5426218 210.90583985 -86.55218625 198.71105803 -86.56629022 186.51625422 C-86.58068845 173.9670753 -86.5875585 161.41791143 -86.58669645 148.86872405 C-86.58636565 141.83445439 -86.58906092 134.80021714 -86.5998745 127.76595497 C-86.60998638 121.14620232 -86.60960907 114.5265061 -86.60235786 107.90674591 C-86.60131664 105.48613828 -86.60364724 103.06552631 -86.60971832 100.64492607 C-86.67282723 73.72538544 -84.1703925 50.80539173 -66.35784912 29.26069641 C-65.59472412 28.25007141 -64.83159912 27.23944641 -64.04534912 26.19819641 C-47.58368853 8.20521855 -23.94727827 -0.09222522 0 0 Z " fill="#171932" transform="translate(88.35784912109375,-0.2606964111328125)"/>
<path d="M0 0 C7.04082992 3.30784204 12.9655792 8.47876196 18.890625 13.44140625 C24.64092907 18.22393039 30.6677639 22.66554765 36.62402344 27.18603516 C39.05436196 29.04150322 41.46973362 30.91512165 43.8828125 32.79296875 C56.33957585 42.44819172 69.19910977 51.37020393 82.27441406 60.1640625 C104.95045842 75.43850299 124.82635655 93.5759077 131.3671875 121.30078125 C134.20010191 139.01254953 133.77207616 157.67174688 126 174 C125.45859375 175.18335938 124.9171875 176.36671875 124.359375 177.5859375 C120.54796106 185.22657573 115.71420187 191.68331227 110 198 C109.22785156 198.85464844 108.45570313 199.70929688 107.66015625 200.58984375 C89.97184432 219.19553977 64.74969656 230.49203202 39.1171875 231.3359375 C20.3974539 231.5676142 4.03232497 230.33236041 -13 222 C-13.88558594 221.58234375 -14.77117187 221.1646875 -15.68359375 220.734375 C-36.01166875 210.46707442 -53.50521808 192.05249408 -61.87109375 170.7734375 C-64.58810758 161.69165424 -66.24442821 152.30735297 -68 143 C-68.99257812 143.81082031 -69.98515625 144.62164062 -71.0078125 145.45703125 C-77.60842855 150.83952542 -84.21881773 156.20278897 -90.9375 161.4375 C-96.24573543 165.57385685 -101.44609174 169.82809674 -106.625 174.125 C-111.60635125 178.24655178 -116.6017908 182.33775338 -121.75 186.25 C-122.65234375 186.93578125 -123.5546875 187.6215625 -124.484375 188.328125 C-129.82533476 191.87770695 -134.68095929 192.90431501 -141 192 C-145.9710149 189.46759618 -149.49430567 186.01138866 -152 181 C-152.90208859 176.09808463 -153.0744687 171.81662749 -150.484375 167.4375 C-144.77652921 160.84176708 -137.76082482 155.62686024 -130.83056641 150.39111328 C-127.85741937 148.13171187 -124.93093069 145.8137194 -122 143.5 C-120.83356505 142.5830385 -119.66689808 141.66637207 -118.5 140.75 C-117.9225 140.29625 -117.345 139.8425 -116.75 139.375 C-105.66666667 130.66666667 -94.58333333 121.95833333 -83.5 113.25 C-82.63362915 112.56925415 -82.63362915 112.56925415 -81.74975586 111.87475586 C-80.58397077 110.95881672 -79.41811799 110.04296374 -78.25219727 109.12719727 C-75.32147903 106.82510397 -72.39198089 104.52148922 -69.46484375 102.21484375 C-68.28908242 101.2890372 -67.11330128 100.36325581 -65.9375 99.4375 C-65.08043457 98.76170898 -65.08043457 98.76170898 -64.20605469 98.07226562 C-61.25693068 95.75235483 -58.29303062 93.4554917 -55.30078125 91.19140625 C-54.70467041 90.73902588 -54.10855957 90.28664551 -53.49438477 89.82055664 C-52.36126783 88.96274985 -51.22518926 88.10883624 -50.08569336 87.25952148 C-47.49207534 85.29465935 -45.82978733 83.744681 -44 81 C-44.67936615 80.99857498 -45.3587323 80.99714996 -46.0586853 80.99568176 C-53.16501628 80.97591084 -60.27049683 80.92147826 -67.37646484 80.84741211 C-70.02418912 80.82429423 -72.67200454 80.80985109 -75.31982422 80.80444336 C-79.13826903 80.79510906 -82.95529231 80.75401529 -86.7734375 80.70703125 C-87.94675629 80.7109639 -89.12007507 80.71489655 -90.32894897 80.71894836 C-97.70422602 80.58964418 -103.99215075 79.57216229 -110 75 C-112.58077257 70.79092868 -112.66076313 66.81771602 -112 62 C-110.12620013 57.95259229 -108.72138206 56.3960529 -104.8125 54.25 C-96.90982401 51.39973213 -89.23322312 50.69926393 -80.88061523 50.68115234 C-79.80640823 50.67110672 -78.73220123 50.6610611 -77.6254425 50.65071106 C-74.10316463 50.62001812 -70.58096228 50.60288254 -67.05859375 50.5859375 C-64.60522315 50.56721469 -62.15185891 50.54764046 -59.69850159 50.5272522 C-53.26243857 50.47604271 -46.8263547 50.43635713 -40.39019775 50.39910889 C-33.8141163 50.35899906 -27.23812076 50.30793859 -20.66210938 50.2578125 C-7.7748011 50.16118564 5.11255655 50.07636631 18 50 C14.48308267 46.45165852 10.88644916 43.08791787 7.0625 39.875 C6.50691406 39.40562012 5.95132813 38.93624023 5.37890625 38.45263672 C0.60050737 34.44352806 -4.28795676 30.58208928 -9.24194336 26.79248047 C-18.48839128 19.6552047 -18.48839128 19.6552047 -20.0625 14.5625 C-19.98387577 10.0809189 -18.86864624 8.39708108 -16 5 C-10.88293287 0.49210753 -6.8950691 -1.2228215 0 0 Z " fill="#525883" transform="translate(215,87)"/>
<path d="M0 0 C2.31415804 1.72244688 4.45705789 3.54780137 6.60546875 5.47265625 C7.42917969 6.16875 8.25289063 6.86484375 9.1015625 7.58203125 C19.03650412 16.59455059 24.8690926 28.00761833 25.80859375 41.359375 C26.04525761 55.50004074 22.1637273 67.80295158 12.40600586 78.20874023 C0.25093317 90.56668456 -14.41362371 97.45345598 -31.79614258 97.76513672 C-42.0420269 97.83002917 -50.93547323 97.79795201 -60.39453125 93.47265625 C-61.81378906 92.83650391 -61.81378906 92.83650391 -63.26171875 92.1875 C-77.40320563 85.15592965 -87.18090038 73.32870119 -92.39453125 58.47265625 C-95.83723331 45.64285325 -94.13594868 30.94989213 -87.76953125 19.47265625 C-78.25044903 4.63681835 -65.55610443 -4.56153317 -48.39453125 -8.52734375 C-47.59015625 -8.718125 -46.78578125 -8.90890625 -45.95703125 -9.10546875 C-30.5431017 -11.64312788 -13.16994807 -8.40040733 0 0 Z " fill="#171932" transform="translate(281.39453125,177.52734375)"/>
<path d="M0 0 C8.5113641 6.06948309 16.20523298 14.41087456 18 25 C18.96815772 35.51358773 17.00529905 44.14602522 10.875 52.8125 C4.13783961 60.8596638 -5.31702254 64.63865274 -15.375 66.6875 C-27.37502123 67.72198459 -36.43328425 66.52503964 -46.0546875 58.75390625 C-53.60122321 51.94990116 -59.13905648 45.20143381 -60.375 34.86328125 C-60.7828416 24.09371411 -57.92678514 15.27023488 -50.9765625 7.00390625 C-37.75885012 -6.39665986 -16.28935068 -8.76804447 0 0 Z " fill="#525883" transform="translate(270,189)"/>
<path d="M0 0 C2.3384384 2.3384384 2.58082238 4.14288321 3.24145508 7.30688477 C5.72614956 19.17548289 10.8898879 27.88673907 20 36 C18.50230905 39.17892246 16.69985417 42.01711031 14.75 44.9375 C8.76134341 54.33220502 4.68890296 63.53895592 2.640625 74.515625 C2.42921875 75.33546875 2.2178125 76.1553125 2 77 C1.01 77.495 1.01 77.495 0 78 C-0.25652344 76.97003906 -0.51304687 75.94007813 -0.77734375 74.87890625 C-2.91966133 66.74599828 -5.54057375 59.25114748 -9.5 51.8125 C-9.86730225 51.11906494 -10.23460449 50.42562988 -10.61303711 49.71118164 C-12.42496171 46.42699329 -14.31071104 43.52728993 -16.78125 40.69921875 C-19 38 -19 38 -19 35 C-17.4609375 33.52734375 -17.4609375 33.52734375 -15.375 31.9375 C-5.61515188 23.74959202 -2.11008752 12.11438484 0 0 Z " fill="#171932" transform="translate(136,430)"/>
<path d="M0 0 C0.33 0 0.66 0 1 0 C1.22042969 1.30710937 1.22042969 1.30710937 1.4453125 2.640625 C4.1299164 16.89679743 9.75830597 26.82018932 20 37 C19.49210937 37.65484375 18.98421875 38.3096875 18.4609375 38.984375 C10.87723756 49.03916818 5.99564103 58.75381916 2.859375 70.96875 C2.12866656 73.54615794 1.30055133 75.67269763 0 78 C-0.391875 76.783125 -0.78375 75.56625 -1.1875 74.3125 C-5.858605 60.40832297 -11.60844298 48.05170423 -20 36 C-19.35933594 35.44054687 -18.71867187 34.88109375 -18.05859375 34.3046875 C-7.79527398 24.7908501 -2.63897734 13.72268217 0 0 Z " fill="#171932" transform="translate(64,430)"/>
<path d="M0 0 C0.33 0 0.66 0 1 0 C1.24234375 1.0621875 1.4846875 2.124375 1.734375 3.21875 C4.75768561 16.11739508 8.64070341 27.98167299 20 36 C18.58354585 39.06783239 16.86016722 41.56975824 14.8125 44.25 C7.7077415 54.30642225 3.39147902 65.97427693 1 78 C-1.68487993 75.31512007 -2.18572237 72.30676633 -3.1875 68.75 C-6.71788288 56.92548898 -11.83706376 46.37869271 -20 37 C-19.319375 36.360625 -18.63875 35.72125 -17.9375 35.0625 C-7.58452276 24.65069902 -3.42300589 13.9833432 0 0 Z " fill="#171932" transform="translate(209,430)"/>
<path d="M0 0 C1.2065625 0.0309375 1.2065625 0.0309375 2.4375 0.0625 C2.58445312 1.18785156 2.58445312 1.18785156 2.734375 2.3359375 C4.80918001 16.53762007 9.80806649 27.26951369 21.4375 36.0625 C20.83219904 39.89013841 19.03570003 42.15955786 16.6875 45.1875 C9.09600846 55.43601358 4.75770562 66.51018759 2.4375 79.0625 C0.4575 79.0625 -1.5225 79.0625 -3.5625 79.0625 C-3.830625 78.00933594 -4.09875 76.95617187 -4.375 75.87109375 C-7.98212948 62.35145886 -13.13466507 50.45449406 -22.3125 39.69921875 C-23.5625 38.0625 -23.5625 38.0625 -23.5625 36.0625 C-22.0234375 34.6171875 -22.0234375 34.6171875 -19.9375 32.9375 C-10.45285688 24.82695712 -5.77991005 15.51610036 -3.95703125 3.25 C-3.39106 0.11194156 -3.24268558 0.07908989 0 0 Z M-1.5625 16.0625 C-1.9028125 16.82433594 -2.243125 17.58617187 -2.59375 18.37109375 C-6.0182728 25.66642024 -9.88044971 31.35160681 -15.5625 37.0625 C-14.26641447 40.53920335 -12.73417921 43.5567898 -10.75 46.6875 C-7.97350599 51.21542544 -5.74396984 55.84209486 -3.640625 60.71484375 C-2.55054842 63.25034329 -2.55054842 63.25034329 -0.5625 66.0625 C-0.13839844 65.10730469 0.28570312 64.15210938 0.72265625 63.16796875 C4.05069336 55.79443899 7.5425247 48.92114549 12.15234375 42.234375 C13.69212535 40.05279454 13.69212535 40.05279454 13.4375 37.0625 C12.12750062 35.39136831 12.12750062 35.39136831 10.375 33.6875 C5.57455634 28.45599609 2.5967133 22.36172165 -0.5625 16.0625 C-0.8925 16.0625 -1.2225 16.0625 -1.5625 16.0625 Z " fill="#171932" transform="translate(282.5625,428.9375)"/>
<path d="M0 0 C1.65 0 3.3 0 5 0 C5.23074219 1.03898437 5.46148437 2.07796875 5.69921875 3.1484375 C9.04383126 18.00697025 9.04383126 18.00697025 18 30 C18 30.66 18 31.32 18 32 C18.598125 32.2475 19.19625 32.495 19.8125 32.75 C22.29482087 34.16846907 23.36328035 35.69264738 25 38 C24.43152344 38.69222656 23.86304688 39.38445312 23.27734375 40.09765625 C13.93094774 51.94058542 8.62061234 64.40510925 5 79 C3.35 79 1.7 79 0 79 C-0.36351562 77.83984375 -0.72703125 76.6796875 -1.1015625 75.484375 C-5.56732979 61.49093673 -10.92796014 49.6969448 -20 38 C-18.6051584 34.70504256 -17.08182149 33.08331822 -14.25 30.9375 C-4.85100136 22.86662073 -2.47395124 11.5984655 0 0 Z M2 15 C1.56429688 15.92941406 1.12859375 16.85882813 0.6796875 17.81640625 C-3.07244833 25.6618775 -6.78674596 31.78674596 -13 38 C-12.56429688 38.65484375 -12.12859375 39.3096875 -11.6796875 39.984375 C-6.09627156 48.54077864 -1.07812542 57.21647459 2 67 C3.90279092 64.14581362 5.00616337 61.61757564 6.25 58.4375 C8.31145781 53.38478739 10.7251923 48.84277401 13.66796875 44.25390625 C15.05643002 41.90451577 16.04947432 39.55425621 17 37 C16.48050781 36.46632813 15.96101563 35.93265625 15.42578125 35.3828125 C10.967013 30.61910076 7.7071039 26.11005403 5.0078125 20.1640625 C3.96700739 17.78629972 3.96700739 17.78629972 2 15 Z " fill="#171932" transform="translate(352,429)"/>
</svg>
