<?xml version="1.0" standalone="no"?>
<!DOCTYPE svg PUBLIC "-//W3C//DTD SVG 20010904//EN"
 "http://www.w3.org/TR/2001/REC-SVG-20010904/DTD/svg10.dtd">
<svg version="1.0" xmlns="http://www.w3.org/2000/svg"
 width="418.000000pt" height="508.000000pt" viewBox="0 0 418.000000 508.000000"
 preserveAspectRatio="xMidYMid meet">

<g transform="translate(0.000000,508.000000) scale(0.100000,-0.100000)"
fill="#000000" stroke="none">
<path d="M671 5054 c-320 -70 -580 -348 -631 -674 -8 -55 -10 -430 -8 -1415
l3 -1340 23 -73 c87 -282 300 -494 579 -574 l78 -23 1375 0 1375 0 78 23 c305
88 531 328 592 628 14 70 15 226 13 1439 -3 1531 4 1395 -82 1570 -100 202
-274 350 -501 427 l-70 23 -1380 2 c-1157 1 -1390 -1 -1444 -13z"/>
<path d="M3526 768 c-2 -7 -9 -38 -15 -70 -18 -85 -58 -156 -128 -224 -56 -56
-61 -63 -46 -76 29 -23 109 -154 136 -220 13 -34 31 -89 38 -121 11 -48 17
-57 35 -57 18 0 24 8 29 43 18 105 95 267 163 339 l25 28 -60 63 c-33 34 -69
80 -81 102 -25 51 -52 140 -52 177 0 21 -5 28 -20 28 -11 0 -22 -6 -24 -12z
m130 -308 l47 -50 -25 -32 c-41 -54 -79 -125 -108 -200 l-28 -71 -12 39 c-17
53 -66 148 -107 211 l-35 53 50 56 c27 31 63 83 78 117 l28 62 33 -67 c18 -38
53 -90 79 -118z"/>
<path d="M2082 703 c-18 -89 -56 -158 -122 -227 l-60 -62 41 -53 c50 -68 101
-174 130 -273 l23 -77 18 72 c23 90 77 206 129 275 l40 53 -54 59 c-64 69
-102 142 -120 228 l-13 63 -12 -58z"/>
<path d="M627 691 c-26 -92 -62 -157 -124 -222 l-54 -57 37 -49 c45 -59 109
-189 130 -263 8 -30 18 -62 21 -70 2 -8 13 18 24 59 24 93 77 204 130 271 l41
51 -52 52 c-58 58 -114 165 -127 242 l-8 50 -18 -64z"/>
<path d="M1353 697 c-18 -84 -62 -165 -124 -229 -32 -32 -53 -60 -49 -63 5 -3
30 -37 55 -75 51 -77 89 -163 115 -258 l16 -63 22 82 c28 102 70 191 126 265
l43 57 -35 31 c-50 43 -110 140 -128 206 -30 109 -28 107 -41 47z"/>
<path d="M2806 696 c-10 -67 -63 -163 -123 -225 -29 -30 -53 -57 -53 -59 0 -2
13 -21 29 -41 63 -79 151 -275 151 -335 0 -35 16 -4 35 67 22 86 71 187 123
255 l40 54 -43 43 c-24 23 -54 60 -68 81 -30 49 -67 147 -67 179 0 42 -17 28
-24 -19z"/>
</g>
</svg>
