<?xml version="1.0" encoding="UTF-8"?>
<svg version="1.1" xmlns="http://www.w3.org/2000/svg" width="418" height="508">
<path d="M0 0 C1.07702187 -0.00382555 2.15404374 -0.00765109 3.26370263 -0.01159257 C6.83749426 -0.0218308 10.41112245 -0.01794794 13.98492432 -0.01396179 C16.5616877 -0.01831338 19.13844978 -0.02349801 21.71520996 -0.02944946 C27.96742554 -0.04214518 34.21959807 -0.04399654 40.47182438 -0.0416492 C45.55912484 -0.03985988 50.64641233 -0.04162878 55.73371124 -0.04587364 C56.46016116 -0.04646883 57.18661109 -0.04706402 57.93507464 -0.04767724 C59.41129253 -0.04888911 60.88751043 -0.05010324 62.36372831 -0.05131962 C76.18272553 -0.0621757 90.00169829 -0.06004202 103.82069686 -0.05393478 C116.43181543 -0.04876903 129.04285668 -0.06001545 141.65395996 -0.07903299 C154.63600687 -0.0984582 167.61801729 -0.1066591 180.60007882 -0.10290974 C187.87525494 -0.10100457 195.1503653 -0.10341802 202.42552948 -0.11762428 C209.27106105 -0.13085746 216.11643615 -0.12821477 222.96196747 -0.11521339 C225.4643967 -0.11285802 227.96683694 -0.11554469 230.46925354 -0.12383652 C262.95282605 -0.22365205 262.95282605 -0.22365205 276.95465088 6.51069641 C277.61360352 6.81515686 278.27255615 7.11961731 278.95147705 7.43330383 C300.50952939 17.64086426 315.09578738 34.24012194 323.64215088 56.26069641 C326.88493627 66.46769249 327.79195239 76.41948902 327.78259277 87.06159973 C327.78704946 88.65975533 327.78704946 88.65975533 327.79159617 90.2901969 C327.80024513 93.84873082 327.80178821 97.40723095 327.80328369 100.96577454 C327.80791461 103.52224295 327.81293963 106.07871068 327.81832886 108.63517761 C327.83142966 115.5735737 327.83793075 122.51195873 327.84233952 129.45036507 C327.84510921 133.78970587 327.8493479 138.12904448 327.85384369 142.46838379 C327.86603179 154.50239675 327.87633153 166.53640795 327.87971878 178.57042694 C327.87993835 179.33963513 327.88015791 180.10884331 327.88038413 180.90136084 C327.88060241 181.67232506 327.88082069 182.44328929 327.88104558 183.23761606 C327.88148903 184.79967149 327.8819356 186.36172692 327.88238525 187.92378235 C327.88260668 188.69860244 327.88282811 189.47342253 327.88305625 190.27172202 C327.8869999 202.81195914 327.90444275 215.352138 327.92774478 227.89235264 C327.95152118 240.79290704 327.96392351 253.69343228 327.9650867 266.59400892 C327.96600001 273.82677354 327.97166498 281.05946224 327.98990631 288.29220581 C328.0070203 295.10156144 328.00851316 301.91077144 327.9997673 308.72014236 C327.99900013 311.20967113 328.00329715 313.6992078 328.01322556 316.18871689 C328.11623958 343.64468783 324.30684346 368.00231025 304.39605713 388.50679016 C289.43189772 403.47094957 270.92351387 413.39324826 249.3789171 413.53750741 C248.34924463 413.53441021 247.31957217 413.53131301 246.25869751 413.52812195 C245.14269783 413.53265306 244.02669814 413.53718417 242.87688029 413.54185259 C239.15324949 413.55446961 235.42976547 413.55287793 231.70611572 413.55122375 C229.02964744 413.55721075 226.35319046 413.56396061 223.67672729 413.57157898 C217.16976951 413.58814829 210.66284797 413.59368671 204.15587084 413.59480374 C198.86206323 413.5957563 193.5682675 413.59987696 188.27446365 413.60620499 C173.24113311 413.62380753 158.20783106 413.63304559 143.17449014 413.63154404 C141.96037918 413.63142417 141.96037918 413.63142417 140.72174072 413.63130188 C139.91133645 413.63122012 139.10093217 413.63113836 138.26597019 413.63105412 C125.14311121 413.63024185 112.02036719 413.64936706 98.89754145 413.67757861 C85.3991778 413.70636672 71.9008701 413.7201156 58.402475 413.71839106 C50.83383299 413.71772913 43.26531145 413.72313462 35.69669724 413.74474716 C29.25058808 413.76303735 22.80465396 413.7672426 16.35852997 413.75372832 C13.07553684 413.74723735 9.79294525 413.74915084 6.50997162 413.76443481 C-9.95523793 413.8360899 -24.76352215 413.43290263 -39.60784912 405.51069641 C-40.60087036 404.99527283 -40.60087036 404.99527283 -41.61395264 404.46943665 C-62.77585023 393.20207975 -76.34077413 375.91230691 -83.35784912 353.26069641 C-86.17178631 343.54761374 -86.50790277 333.53259858 -86.49156189 323.478302 C-86.49382745 322.43903539 -86.496093 321.39976878 -86.49842721 320.32900923 C-86.50472163 316.87108679 -86.50394079 313.413204 -86.50311279 309.95527649 C-86.50610714 307.46585541 -86.50951031 304.97643479 -86.51329041 302.48701477 C-86.52119226 296.44074384 -86.52434386 290.39448831 -86.52490278 284.34821365 C-86.52537943 279.42867106 -86.52744158 274.50913166 -86.53060341 269.58959007 C-86.53940185 255.61358514 -86.54402409 241.63758785 -86.54327293 227.66158012 C-86.54323298 226.90949113 -86.54319302 226.15740215 -86.54315186 225.38252258 C-86.54311097 224.62950549 -86.54307009 223.87648839 -86.54302797 223.1006526 C-86.5426218 210.90583985 -86.55218625 198.71105803 -86.56629022 186.51625422 C-86.58068845 173.9670753 -86.5875585 161.41791143 -86.58669645 148.86872405 C-86.58636565 141.83445439 -86.58906092 134.80021714 -86.5998745 127.76595497 C-86.60998638 121.14620232 -86.60960907 114.5265061 -86.60235786 107.90674591 C-86.60131664 105.48613828 -86.60364724 103.06552631 -86.60971832 100.64492607 C-86.67282723 73.72538544 -84.1703925 50.80539173 -66.35784912 29.26069641 C-65.59472412 28.25007141 -64.83159912 27.23944641 -64.04534912 26.19819641 C-47.58368853 8.20521855 -23.94727827 -0.09222522 0 0 Z " fill="#171932" transform="translate(88.35784912109375,-0.2606964111328125)"/>
<path d="M0 0 C1.03450287 -0.00744736 1.03450287 -0.00744736 2.08990479 -0.01504517 C4.38717637 -0.02972401 6.68437852 -0.03648433 8.98168945 -0.04199219 C10.58339947 -0.0477466 12.18510947 -0.05350429 13.78681946 -0.05926514 C17.15882691 -0.06979651 20.53081043 -0.07562265 23.90283203 -0.07910156 C28.18715998 -0.08453827 32.47116231 -0.10845185 36.75538921 -0.13707352 C40.07321526 -0.15588341 43.39096651 -0.16091551 46.70884132 -0.16243744 C48.28541625 -0.16543217 49.86199089 -0.17335069 51.4385128 -0.18662262 C72.31406035 -0.34956361 92.8212145 4.20921803 108.5949707 18.78613281 C122.6256819 33.76759035 125.413612 50.11154435 124.8527832 69.84472656 C124.01574319 85.55442443 117.51517106 99.20421123 106.02856445 110.03222656 C95.91709512 118.24496991 84.88071121 122.10512331 72.4074707 125.16113281 C71.68285645 125.34289062 70.95824219 125.52464844 70.21166992 125.71191406 C66.41404667 126.3202744 62.65961518 126.28404584 58.82543945 126.25878906 C57.60417107 126.25666664 57.60417107 126.25666664 56.35823059 126.25450134 C53.77043914 126.24892598 51.18273578 126.23637805 48.5949707 126.22363281 C46.83520633 126.21861463 45.0754406 126.21405228 43.31567383 126.20996094 C39.01290577 126.19896462 34.71020315 126.18171702 30.4074707 126.16113281 C30.40969131 126.88554062 30.41191193 127.60994843 30.41419983 128.35630798 C30.43420298 135.16956735 30.44944496 141.98282234 30.45928288 148.79610348 C30.46451059 152.29922166 30.47160621 155.80231566 30.48291016 159.30541992 C30.49581276 163.32894122 30.50069982 167.35243695 30.50512695 171.37597656 C30.51028824 172.63949448 30.51544952 173.90301239 30.52076721 175.20481873 C30.52084274 176.36594681 30.52091827 177.52707489 30.52099609 178.72338867 C30.52321671 179.75153183 30.52543732 180.77967499 30.52772522 181.838974 C30.4074707 184.16113281 30.4074707 184.16113281 29.4074707 185.16113281 C26.75290877 185.26208845 24.12491895 185.3008428 21.4699707 185.29394531 C20.27706421 185.2953804 20.27706421 185.2953804 19.06005859 185.29684448 C17.3754061 185.29752624 15.69075099 185.29567224 14.00610352 185.29150391 C11.41847874 185.28615556 8.83102754 185.291449 6.2434082 185.29785156 C4.61059532 185.29719078 2.97778254 185.29590962 1.3449707 185.29394531 C0.56581299 185.29596954 -0.21334473 185.29799377 -1.01611328 185.30007935 C-6.47757825 185.27608386 -6.47757825 185.27608386 -7.5925293 184.16113281 C-7.69238198 181.79795812 -7.72695573 179.46395486 -7.71951294 177.10021973 C-7.72107293 176.35278079 -7.72263292 175.60534184 -7.72424018 174.83525324 C-7.72825298 172.3116987 -7.72505947 169.78820351 -7.72192383 167.26464844 C-7.72327775 165.46319035 -7.72505762 163.66173255 -7.72723389 161.86027527 C-7.73180936 156.95339218 -7.7300182 152.04653001 -7.7268548 147.13964653 C-7.72433178 142.01647763 -7.72666857 136.89331057 -7.72824097 131.7701416 C-7.73006283 123.16495439 -7.72765591 114.55977575 -7.72290039 105.95458984 C-7.71745774 95.99064081 -7.71922038 86.02671223 -7.7247268 76.06276369 C-7.72925744 67.52436793 -7.72990871 58.98597834 -7.72728813 50.44758177 C-7.72572508 45.34076826 -7.72553233 40.23396439 -7.72882462 35.12715149 C-7.73170262 30.32722829 -7.72972894 25.52733159 -7.72393036 20.72741127 C-7.72260238 18.96046811 -7.72299751 17.19352273 -7.72519302 15.42658043 C-7.72790306 13.02503828 -7.72452522 10.62358246 -7.71951294 8.2220459 C-7.72174366 7.51359732 -7.72397438 6.80514874 -7.7262727 6.07523203 C-7.69911512 -0.57772666 -6.42409754 0.03502405 0 0 Z " fill="#525883" transform="translate(95.592529296875,106.8388671875)"/>
<path d="M0 0 C0.02464849 5.39346988 0.04283531 10.78690725 0.05493164 16.18041992 C0.05997231 18.01668875 0.06680477 19.85295354 0.07543945 21.68920898 C0.08751672 24.32276401 0.09323081 26.95626616 0.09765625 29.58984375 C0.10281754 30.41588608 0.10797882 31.24192841 0.11329651 32.09300232 C0.11349205 34.06236368 0.06204152 36.03161614 0 38 C-1.54133839 39.54133839 -3.08833089 39.25063187 -5.234375 39.39453125 C-25.37322406 40.77616713 -25.37322406 40.77616713 -43 50 C-44.63365835 53.2673167 -44.1714041 56.88068839 -44.18945312 60.47290039 C-44.19774643 61.3494075 -44.20603973 62.22591461 -44.21458435 63.12898254 C-44.23200417 65.03547914 -44.24716568 66.94199739 -44.26036072 68.84852791 C-44.28134199 71.86086322 -44.30836716 74.87308941 -44.33703613 77.88536072 C-44.40696402 85.36596282 -44.46634628 92.84664222 -44.52606201 100.32733154 C-44.57690111 106.64714103 -44.63169438 112.96689158 -44.69187927 119.28661919 C-44.71855224 122.26308847 -44.73930596 125.23956295 -44.7598877 128.21607971 C-44.77648276 130.02955388 -44.79335389 131.84302555 -44.81054688 133.65649414 C-44.81473129 134.49132324 -44.81891571 135.32615234 -44.82322693 136.1862793 C-44.88615421 141.88615421 -44.88615421 141.88615421 -46 143 C-48.79993597 143.10103255 -51.57468644 143.13970088 -54.375 143.1328125 C-55.21466309 143.13376923 -56.05432617 143.13472595 -56.91943359 143.13571167 C-58.69824295 143.13639348 -60.47705477 143.13453917 -62.25585938 143.13037109 C-64.98833776 143.12502283 -67.72065176 143.13031605 -70.453125 143.13671875 C-72.1770837 143.13605797 -73.90104229 143.13477681 -75.625 143.1328125 C-76.44790527 143.13483673 -77.27081055 143.13686096 -78.11865234 143.13894653 C-83.88504946 143.11495054 -83.88504946 143.11495054 -85 142 C-85.10860365 140.20342937 -85.14687842 138.40258243 -85.15821838 136.60276794 C-85.1680072 135.43182587 -85.17779602 134.26088379 -85.18788147 133.05445862 C-85.19363693 131.75830124 -85.1993924 130.46214386 -85.20532227 129.12670898 C-85.2148956 127.75711772 -85.22490535 126.38752945 -85.23532104 125.01794434 C-85.26243531 121.2888027 -85.28340943 117.55964832 -85.30332303 113.83046222 C-85.32514251 109.93733043 -85.35255089 106.04423821 -85.37937927 102.15113831 C-85.42936094 94.77404723 -85.47427939 87.39693426 -85.51740164 80.01980025 C-85.56672733 71.62329648 -85.62166271 63.22683239 -85.67708123 54.83036697 C-85.79098529 37.55361319 -85.89706523 20.27682315 -86 3 C-74.45 3 -62.9 3 -51 3 C-49.28004768 7.2998808 -48.66988459 9.84008378 -48.375 14.3125 C-48.30023438 15.38113281 -48.22546875 16.44976562 -48.1484375 17.55078125 C-48.09945312 18.35902344 -48.05046875 19.16726562 -48 20 C-47.15179688 19.28714844 -46.30359375 18.57429688 -45.4296875 17.83984375 C-31.4194783 6.30878249 -18.5977832 -0.50339864 0 0 Z " fill="#525883" transform="translate(330,149)"/>
<path d="M0 0 C1.98181272 -0.00957513 3.96348387 -0.04070231 5.94506836 -0.07226562 C17.39838183 -0.11870582 27.28251823 1.42998966 36.08374023 9.24023438 C43.09797937 17.86067533 43.69343148 25.43207147 43.08374023 36.24023438 C41.98865615 42.37098069 39.55065768 46.84221155 35.08374023 51.24023438 C20.8386019 60.55915134 4.69902838 61.54429669 -11.91625977 60.24023438 C-13.64693676 58.50955738 -13.04382506 56.17534633 -13.0456543 53.81835938 C-13.04880646 52.66045898 -13.05195862 51.50255859 -13.0552063 50.30957031 C-13.05318207 49.04918945 -13.05115784 47.78880859 -13.04907227 46.49023438 C-13.05050735 44.5648584 -13.05050735 44.5648584 -13.05197144 42.60058594 C-13.05344807 39.88019614 -13.05129496 37.15983912 -13.04663086 34.43945312 C-13.04093357 30.94538768 -13.04421276 27.45139905 -13.05020332 23.95733643 C-13.05467731 20.63496285 -13.05154862 17.31261014 -13.04907227 13.99023438 C-13.0510965 12.72985352 -13.05312073 11.46947266 -13.0552063 10.17089844 C-13.05205414 9.01299805 -13.04890198 7.85509766 -13.0456543 6.66210938 C-13.04446091 5.12441895 -13.04446091 5.12441895 -13.04324341 3.55566406 C-12.72633103 -2.2229411 -4.42103998 0.0129003 0 0 Z " fill="#171A33" transform="translate(138.916259765625,140.759765625)"/>
<path d="M0 0 C2.3384384 2.3384384 2.58082238 4.14288321 3.24145508 7.30688477 C5.72614956 19.17548289 10.8898879 27.88673907 20 36 C18.50230905 39.17892246 16.69985417 42.01711031 14.75 44.9375 C8.76134341 54.33220502 4.68890296 63.53895592 2.640625 74.515625 C2.42921875 75.33546875 2.2178125 76.1553125 2 77 C1.01 77.495 1.01 77.495 0 78 C-0.25652344 76.97003906 -0.51304687 75.94007813 -0.77734375 74.87890625 C-2.91966133 66.74599828 -5.54057375 59.25114748 -9.5 51.8125 C-9.86730225 51.11906494 -10.23460449 50.42562988 -10.61303711 49.71118164 C-12.42496171 46.42699329 -14.31071104 43.52728993 -16.78125 40.69921875 C-19 38 -19 38 -19 35 C-17.4609375 33.52734375 -17.4609375 33.52734375 -15.375 31.9375 C-5.61515188 23.74959202 -2.11008752 12.11438484 0 0 Z " fill="#171932" transform="translate(136,430)"/>
<path d="M0 0 C0.33 0 0.66 0 1 0 C1.22042969 1.30710937 1.22042969 1.30710937 1.4453125 2.640625 C4.1299164 16.89679743 9.75830597 26.82018932 20 37 C19.49210937 37.65484375 18.98421875 38.3096875 18.4609375 38.984375 C10.87723756 49.03916818 5.99564103 58.75381916 2.859375 70.96875 C2.12866656 73.54615794 1.30055133 75.67269763 0 78 C-0.391875 76.783125 -0.78375 75.56625 -1.1875 74.3125 C-5.858605 60.40832297 -11.60844298 48.05170423 -20 36 C-19.35933594 35.44054687 -18.71867187 34.88109375 -18.05859375 34.3046875 C-7.79527398 24.7908501 -2.63897734 13.72268217 0 0 Z " fill="#171932" transform="translate(64,430)"/>
<path d="M0 0 C0.33 0 0.66 0 1 0 C1.24234375 1.0621875 1.4846875 2.124375 1.734375 3.21875 C4.75768561 16.11739508 8.64070341 27.98167299 20 36 C18.58354585 39.06783239 16.86016722 41.56975824 14.8125 44.25 C7.7077415 54.30642225 3.39147902 65.97427693 1 78 C-1.68487993 75.31512007 -2.18572237 72.30676633 -3.1875 68.75 C-6.71788288 56.92548898 -11.83706376 46.37869271 -20 37 C-19.319375 36.360625 -18.63875 35.72125 -17.9375 35.0625 C-7.58452276 24.65069902 -3.42300589 13.9833432 0 0 Z " fill="#171932" transform="translate(209,430)"/>
<path d="M0 0 C1.2065625 0.0309375 1.2065625 0.0309375 2.4375 0.0625 C2.58445312 1.18785156 2.58445312 1.18785156 2.734375 2.3359375 C4.80918001 16.53762007 9.80806649 27.26951369 21.4375 36.0625 C20.83219904 39.89013841 19.03570003 42.15955786 16.6875 45.1875 C9.09600846 55.43601358 4.75770562 66.51018759 2.4375 79.0625 C0.4575 79.0625 -1.5225 79.0625 -3.5625 79.0625 C-3.830625 78.00933594 -4.09875 76.95617187 -4.375 75.87109375 C-7.98212948 62.35145886 -13.13466507 50.45449406 -22.3125 39.69921875 C-23.5625 38.0625 -23.5625 38.0625 -23.5625 36.0625 C-22.0234375 34.6171875 -22.0234375 34.6171875 -19.9375 32.9375 C-10.45285688 24.82695712 -5.77991005 15.51610036 -3.95703125 3.25 C-3.39106 0.11194156 -3.24268558 0.07908989 0 0 Z M-1.5625 16.0625 C-1.9028125 16.82433594 -2.243125 17.58617187 -2.59375 18.37109375 C-6.0182728 25.66642024 -9.88044971 31.35160681 -15.5625 37.0625 C-14.26641447 40.53920335 -12.73417921 43.5567898 -10.75 46.6875 C-7.97350599 51.21542544 -5.74396984 55.84209486 -3.640625 60.71484375 C-2.55054842 63.25034329 -2.55054842 63.25034329 -0.5625 66.0625 C-0.13839844 65.10730469 0.28570312 64.15210938 0.72265625 63.16796875 C4.05069336 55.79443899 7.5425247 48.92114549 12.15234375 42.234375 C13.69212535 40.05279454 13.69212535 40.05279454 13.4375 37.0625 C12.12750062 35.39136831 12.12750062 35.39136831 10.375 33.6875 C5.57455634 28.45599609 2.5967133 22.36172165 -0.5625 16.0625 C-0.8925 16.0625 -1.2225 16.0625 -1.5625 16.0625 Z " fill="#171932" transform="translate(282.5625,428.9375)"/>
<path d="M0 0 C1.65 0 3.3 0 5 0 C5.23074219 1.03898437 5.46148437 2.07796875 5.69921875 3.1484375 C9.04383126 18.00697025 9.04383126 18.00697025 18 30 C18 30.66 18 31.32 18 32 C18.598125 32.2475 19.19625 32.495 19.8125 32.75 C22.29482087 34.16846907 23.36328035 35.69264738 25 38 C24.43152344 38.69222656 23.86304688 39.38445312 23.27734375 40.09765625 C13.93094774 51.94058542 8.62061234 64.40510925 5 79 C3.35 79 1.7 79 0 79 C-0.36351562 77.83984375 -0.72703125 76.6796875 -1.1015625 75.484375 C-5.56732979 61.49093673 -10.92796014 49.6969448 -20 38 C-18.6051584 34.70504256 -17.08182149 33.08331822 -14.25 30.9375 C-4.85100136 22.86662073 -2.47395124 11.5984655 0 0 Z M2 15 C1.56429688 15.92941406 1.12859375 16.85882813 0.6796875 17.81640625 C-3.07244833 25.6618775 -6.78674596 31.78674596 -13 38 C-12.56429688 38.65484375 -12.12859375 39.3096875 -11.6796875 39.984375 C-6.09627156 48.54077864 -1.07812542 57.21647459 2 67 C3.90279092 64.14581362 5.00616337 61.61757564 6.25 58.4375 C8.31145781 53.38478739 10.7251923 48.84277401 13.66796875 44.25390625 C15.05643002 41.90451577 16.04947432 39.55425621 17 37 C16.48050781 36.46632813 15.96101563 35.93265625 15.42578125 35.3828125 C10.967013 30.61910076 7.7071039 26.11005403 5.0078125 20.1640625 C3.96700739 17.78629972 3.96700739 17.78629972 2 15 Z " fill="#171932" transform="translate(352,429)"/>
</svg>
