<?xml version="1.0" standalone="no"?>
<!DOCTYPE svg PUBLIC "-//W3C//DTD SVG 20010904//EN"
 "http://www.w3.org/TR/2001/REC-SVG-20010904/DTD/svg10.dtd">
<svg version="1.0" xmlns="http://www.w3.org/2000/svg"
 width="418.000000pt" height="508.000000pt" viewBox="0 0 418.000000 508.000000"
 preserveAspectRatio="xMidYMid meet">

<g transform="translate(0.000000,508.000000) scale(0.100000,-0.100000)"
fill="#000000" stroke="none">
<path d="M671 5054 c-320 -70 -580 -348 -631 -674 -8 -55 -10 -430 -8 -1415
l3 -1340 23 -73 c87 -282 300 -494 579 -574 l78 -23 1375 0 1375 0 78 23 c305
88 531 328 592 628 14 70 15 226 13 1439 -3 1531 4 1395 -82 1570 -100 202
-274 350 -501 427 l-70 23 -1380 2 c-1157 1 -1390 -1 -1444 -13z"/>
<path d="M2062 714 c-20 -106 -92 -223 -170 -276 l-23 -16 41 -53 c56 -74 124
-212 146 -298 16 -62 21 -71 41 -71 15 0 23 6 23 18 0 76 75 251 144 335 l48
59 -61 63 c-70 72 -116 162 -128 245 -7 44 -12 56 -28 58 -18 2 -22 -6 -33
-64z m90 -190 c14 -22 42 -57 61 -78 l36 -38 -33 -46 c-40 -57 -83 -140 -105
-205 l-17 -48 -32 78 c-17 43 -53 111 -79 151 l-48 73 48 51 c26 28 62 82 80
118 l32 67 16 -41 c8 -22 27 -59 41 -82z"/>
<path d="M2788 709 c-25 -102 -54 -156 -124 -227 l-63 -63 55 -81 c71 -104
102 -173 134 -295 13 -52 46 -61 56 -16 29 135 73 234 143 327 l48 63 -46 40
c-64 56 -117 150 -138 245 -22 104 -42 106 -65 7z m51 -106 c17 -46 71 -130
106 -163 14 -13 25 -27 25 -30 0 -4 -19 -36 -43 -71 -37 -55 -78 -141 -102
-214 -5 -16 -12 -7 -29 41 -25 67 -74 161 -113 212 l-25 33 54 58 c30 32 65
83 79 114 13 31 26 57 29 57 4 0 12 -17 19 -37z"/>
<path d="M3526 768 c-2 -7 -9 -38 -15 -70 -18 -85 -58 -156 -128 -224 -56 -56
-61 -63 -46 -76 29 -23 109 -154 136 -220 13 -34 31 -89 38 -121 11 -48 17
-57 35 -57 18 0 24 8 29 43 18 105 95 267 163 339 l25 28 -60 63 c-33 34 -69
80 -81 102 -25 51 -52 140 -52 177 0 21 -5 28 -20 28 -11 0 -22 -6 -24 -12z
m130 -308 l47 -50 -25 -32 c-41 -54 -79 -125 -108 -200 l-28 -71 -12 39 c-17
53 -66 148 -107 211 l-35 53 50 56 c27 31 63 83 78 117 l28 62 33 -67 c18 -38
53 -90 79 -118z"/>
<path d="M636 725 c-30 -118 -64 -184 -133 -256 l-54 -57 37 -49 c45 -59 109
-189 130 -263 8 -30 18 -62 21 -70 2 -8 13 18 24 59 24 93 77 204 130 271 l41
51 -52 52 c-57 57 -114 164 -128 242 -8 48 -9 49 -16 20z"/>
<path d="M1353 697 c-18 -84 -62 -165 -124 -229 -32 -32 -53 -60 -49 -63 5 -3
30 -37 55 -75 51 -77 89 -163 115 -258 l16 -63 22 82 c28 102 70 191 126 265
l43 57 -35 31 c-50 43 -110 140 -128 206 -30 109 -28 107 -41 47z"/>
</g>
</svg>
