<?xml version="1.0" encoding="UTF-8"?>
<svg version="1.1" xmlns="http://www.w3.org/2000/svg" width="418" height="508">
<path d="M0 0 C1.07702187 -0.00382555 2.15404374 -0.00765109 3.26370263 -0.01159257 C6.83749426 -0.0218308 10.41112245 -0.01794794 13.98492432 -0.01396179 C16.5616877 -0.01831338 19.13844978 -0.02349801 21.71520996 -0.02944946 C27.96742554 -0.04214518 34.21959807 -0.04399654 40.47182438 -0.0416492 C45.55912484 -0.03985988 50.64641233 -0.04162878 55.73371124 -0.04587364 C56.46016116 -0.04646883 57.18661109 -0.04706402 57.93507464 -0.04767724 C59.41129253 -0.04888911 60.88751043 -0.05010324 62.36372831 -0.05131962 C76.18272553 -0.0621757 90.00169829 -0.06004202 103.82069686 -0.05393478 C116.43181543 -0.04876903 129.04285668 -0.06001545 141.65395996 -0.07903299 C154.63600687 -0.0984582 167.61801729 -0.1066591 180.60007882 -0.10290974 C187.87525494 -0.10100457 195.1503653 -0.10341802 202.42552948 -0.11762428 C209.27106105 -0.13085746 216.11643615 -0.12821477 222.96196747 -0.11521339 C225.4643967 -0.11285802 227.96683694 -0.11554469 230.46925354 -0.12383652 C262.95282605 -0.22365205 262.95282605 -0.22365205 276.95465088 6.51069641 C277.61360352 6.81515686 278.27255615 7.11961731 278.95147705 7.43330383 C300.50952939 17.64086426 315.09578738 34.24012194 323.64215088 56.26069641 C326.88493627 66.46769249 327.79195239 76.41948902 327.78259277 87.06159973 C327.78704946 88.65975533 327.78704946 88.65975533 327.79159617 90.2901969 C327.80024513 93.84873082 327.80178821 97.40723095 327.80328369 100.96577454 C327.80791461 103.52224295 327.81293963 106.07871068 327.81832886 108.63517761 C327.83142966 115.5735737 327.83793075 122.51195873 327.84233952 129.45036507 C327.84510921 133.78970587 327.8493479 138.12904448 327.85384369 142.46838379 C327.86603179 154.50239675 327.87633153 166.53640795 327.87971878 178.57042694 C327.87993835 179.33963513 327.88015791 180.10884331 327.88038413 180.90136084 C327.88060241 181.67232506 327.88082069 182.44328929 327.88104558 183.23761606 C327.88148903 184.79967149 327.8819356 186.36172692 327.88238525 187.92378235 C327.88260668 188.69860244 327.88282811 189.47342253 327.88305625 190.27172202 C327.8869999 202.81195914 327.90444275 215.352138 327.92774478 227.89235264 C327.95152118 240.79290704 327.96392351 253.69343228 327.9650867 266.59400892 C327.96600001 273.82677354 327.97166498 281.05946224 327.98990631 288.29220581 C328.0070203 295.10156144 328.00851316 301.91077144 327.9997673 308.72014236 C327.99900013 311.20967113 328.00329715 313.6992078 328.01322556 316.18871689 C328.11623958 343.64468783 324.30684346 368.00231025 304.39605713 388.50679016 C289.43189772 403.47094957 270.92351387 413.39324826 249.3789171 413.53750741 C248.34924463 413.53441021 247.31957217 413.53131301 246.25869751 413.52812195 C245.14269783 413.53265306 244.02669814 413.53718417 242.87688029 413.54185259 C239.15324949 413.55446961 235.42976547 413.55287793 231.70611572 413.55122375 C229.02964744 413.55721075 226.35319046 413.56396061 223.67672729 413.57157898 C217.16976951 413.58814829 210.66284797 413.59368671 204.15587084 413.59480374 C198.86206323 413.5957563 193.5682675 413.59987696 188.27446365 413.60620499 C173.24113311 413.62380753 158.20783106 413.63304559 143.17449014 413.63154404 C141.96037918 413.63142417 141.96037918 413.63142417 140.72174072 413.63130188 C139.91133645 413.63122012 139.10093217 413.63113836 138.26597019 413.63105412 C125.14311121 413.63024185 112.02036719 413.64936706 98.89754145 413.67757861 C85.3991778 413.70636672 71.9008701 413.7201156 58.402475 413.71839106 C50.83383299 413.71772913 43.26531145 413.72313462 35.69669724 413.74474716 C29.25058808 413.76303735 22.80465396 413.7672426 16.35852997 413.75372832 C13.07553684 413.74723735 9.79294525 413.74915084 6.50997162 413.76443481 C-9.95523793 413.8360899 -24.76352215 413.43290263 -39.60784912 405.51069641 C-40.60087036 404.99527283 -40.60087036 404.99527283 -41.61395264 404.46943665 C-62.77585023 393.20207975 -76.34077413 375.91230691 -83.35784912 353.26069641 C-86.17178631 343.54761374 -86.50790277 333.53259858 -86.49156189 323.478302 C-86.49382745 322.43903539 -86.496093 321.39976878 -86.49842721 320.32900923 C-86.50472163 316.87108679 -86.50394079 313.413204 -86.50311279 309.95527649 C-86.50610714 307.46585541 -86.50951031 304.97643479 -86.51329041 302.48701477 C-86.52119226 296.44074384 -86.52434386 290.39448831 -86.52490278 284.34821365 C-86.52537943 279.42867106 -86.52744158 274.50913166 -86.53060341 269.58959007 C-86.53940185 255.61358514 -86.54402409 241.63758785 -86.54327293 227.66158012 C-86.54323298 226.90949113 -86.54319302 226.15740215 -86.54315186 225.38252258 C-86.54311097 224.62950549 -86.54307009 223.87648839 -86.54302797 223.1006526 C-86.5426218 210.90583985 -86.55218625 198.71105803 -86.56629022 186.51625422 C-86.58068845 173.9670753 -86.5875585 161.41791143 -86.58669645 148.86872405 C-86.58636565 141.83445439 -86.58906092 134.80021714 -86.5998745 127.76595497 C-86.60998638 121.14620232 -86.60960907 114.5265061 -86.60235786 107.90674591 C-86.60131664 105.48613828 -86.60364724 103.06552631 -86.60971832 100.64492607 C-86.67282723 73.72538544 -84.1703925 50.80539173 -66.35784912 29.26069641 C-65.59472412 28.25007141 -64.83159912 27.23944641 -64.04534912 26.19819641 C-47.58368853 8.20521855 -23.94727827 -0.09222522 0 0 Z " fill="#171932" transform="translate(88.35784912109375,-0.2606964111328125)"/>
<path d="M0 0 C0.68327362 -0.00350464 1.36654724 -0.00700928 2.07052612 -0.01062012 C4.3396001 -0.01945142 6.60836398 -0.01357705 8.87744141 -0.00683594 C10.46009379 -0.00818374 12.04274576 -0.01012524 13.62539673 -0.01263428 C16.95277829 -0.01558869 20.28005274 -0.01128351 23.60742188 -0.00195312 C27.84141949 0.00934884 32.07516093 0.00294344 36.30914879 -0.00909805 C39.58486799 -0.01638793 42.86052839 -0.01399476 46.13624954 -0.00884247 C47.69492245 -0.00752071 49.25360093 -0.00910118 50.8122673 -0.01380157 C72.77445062 -0.06542216 91.93002332 4.51056068 108.54150391 19.75878906 C120.69084827 32.48851612 124.87137009 48.01951731 124.77636719 65.25488281 C124.29020327 83.02369736 118.36226543 97.84932053 105.35400391 110.25878906 C87.32819319 126.31034432 63.80101407 127.34939665 40.83056641 127.28222656 C39.72366455 127.28053467 38.6167627 127.27884277 37.47631836 127.27709961 C34.7688721 127.27271626 32.06144217 127.2665717 29.35400391 127.25878906 C29.35622452 127.98319687 29.35844513 128.70760468 29.36073303 129.45396423 C29.38073618 136.2672236 29.39597816 143.08047859 29.40581608 149.89375973 C29.41104379 153.39687791 29.41813941 156.89997191 29.42944336 160.40307617 C29.44234596 164.42659747 29.44723302 168.4500932 29.45166016 172.47363281 C29.45682144 173.73715073 29.46198273 175.00066864 29.46730042 176.30247498 C29.46737595 177.46360306 29.46745148 178.62473114 29.4675293 179.82104492 C29.46974991 180.84918808 29.47197052 181.87733124 29.47425842 182.93663025 C29.35400391 185.25878906 29.35400391 185.25878906 28.35400391 186.25878906 C25.69944197 186.3597447 23.07145215 186.39849905 20.41650391 186.39160156 C19.22359741 186.39303665 19.22359741 186.39303665 18.0065918 186.39450073 C16.3219393 186.39518249 14.6372842 186.39332849 12.95263672 186.38916016 C10.36501194 186.38381181 7.77756075 186.38910525 5.18994141 186.39550781 C3.55712852 186.39484703 1.92431574 186.39356587 0.29150391 186.39160156 C-0.48765381 186.39362579 -1.26681152 186.39565002 -2.06958008 186.3977356 C-7.53104505 186.37374011 -7.53104505 186.37374011 -8.64599609 185.25878906 C-8.74806159 182.89791495 -8.78487594 180.5661425 -8.77970886 178.2046051 C-8.78197442 177.45787173 -8.78423998 176.71113835 -8.78657418 175.94177669 C-8.79294276 173.42056035 -8.792083 170.89939736 -8.79125977 168.37817383 C-8.79424947 166.57833791 -8.79765156 164.77850263 -8.80143738 162.97866821 C-8.81030064 158.07585353 -8.81261646 153.17305627 -8.81325316 148.27023435 C-8.8142003 144.18449115 -8.81787632 140.09875206 -8.82142526 136.01301044 C-8.82957862 126.37773077 -8.83200869 116.74246046 -8.83129883 107.10717773 C-8.83069776 97.15118549 -8.84125331 87.19524738 -8.85704249 77.23926884 C-8.87009574 68.70595212 -8.87548366 60.17265315 -8.87484342 51.63932651 C-8.87458778 46.53637762 -8.87747496 41.4334768 -8.88802147 36.3305378 C-8.89766532 31.5330532 -8.89780732 26.73566302 -8.89050484 21.9381752 C-8.88945436 20.17326279 -8.89184912 18.40834462 -8.8978653 16.64344215 C-8.90552314 14.24216739 -8.90098209 11.84122372 -8.89323425 9.43995667 C-8.89837782 8.73442093 -8.90352138 8.02888519 -8.90882081 7.30196959 C-8.85839175 0.27484952 -6.56150853 0.00843046 0 0 Z " fill="#525883" transform="translate(90.64599609375,107.7412109375)"/>
<path d="M0 0 C1 1 1 1 1.11352539 3.95922852 C1.10567017 5.89946899 1.10567017 5.89946899 1.09765625 7.87890625 C1.0962413 8.5655687 1.09482635 9.25223114 1.09336853 9.95970154 C1.08775479 12.16067801 1.07520007 14.36155409 1.0625 16.5625 C1.05748676 18.05143083 1.05292355 19.54036324 1.04882812 21.02929688 C1.03778093 24.68623075 1.02050713 28.34310558 1 32 C-2.75345559 32.85419492 -4.4253068 33.15400269 -7.8125 31.25 C-17.76766266 26.53439663 -28.76107994 25.73271168 -39.625 25.625 C-40.46587158 25.61114258 -41.30674316 25.59728516 -42.1730957 25.58300781 C-47.17123741 25.62119609 -50.68343832 26.20853267 -55 29 C-56.51200062 32.02400124 -56.5817049 33.63903834 -56 37 C-50.32376921 42.94012119 -42.05481597 46.10184804 -34.75 49.5 C0.61402493 66.17217749 0.61402493 66.17217749 7.1015625 82.828125 C10.29556844 94.10435467 7.98362136 106.36568241 2.64453125 116.59765625 C-4.93869301 128.77554185 -17.64160542 134.97619146 -31.3046875 138.30078125 C-52.20190464 141.95195051 -73.47058661 138.81614415 -93 131 C-94 130 -94 130 -94.11352539 126.85717773 C-94.11336633 125.46597303 -94.10767506 124.07476239 -94.09765625 122.68359375 C-94.0962413 121.95253922 -94.09482635 121.22148468 -94.09336853 120.46827698 C-94.08775408 118.12464368 -94.07519922 115.78110461 -94.0625 113.4375 C-94.05748686 111.85221492 -94.05292363 110.26692834 -94.04882812 108.68164062 C-94.03777997 104.7877239 -94.02050572 100.89387795 -94 97 C-89.11990446 98.00909998 -84.44339136 99.05643646 -79.8125 100.9375 C-69.75213234 104.64760796 -60.23264465 106.26946143 -49.5625 106.375 C-48.72211182 106.38885742 -47.88172363 106.40271484 -47.01586914 106.41699219 C-41.61425457 106.37607494 -37.75793077 105.61532711 -33 103 C-30.66956442 99.50434664 -30.41236756 98.1134271 -31 94 C-34.58961416 90.59335774 -38.62978992 88.57016485 -43.1015625 86.57421875 C-44.49349437 85.93555731 -45.88542129 85.29688508 -47.27734375 84.65820312 C-49.44153507 83.67556568 -51.60693826 82.69566042 -53.77294922 81.71704102 C-71.78490561 73.55363083 -85.85372306 65.80471214 -93.3125 46.625 C-95.63615221 34.37301561 -93.41387937 23.80634165 -86.70703125 13.37890625 C-78.48327199 1.91833557 -66.16721947 -4.31812271 -52.33984375 -6.60546875 C-35.87875031 -8.38964398 -14.38811182 -9.70732129 0 0 Z " fill="#525883" transform="translate(328,158)"/>
<path d="M0 0 C38.25714286 0 38.25714286 0 48.79296875 9.640625 C54.838354 16.61737212 56.56777652 22.80720677 56.27734375 32.04296875 C55.49678636 40.36524969 52.44118937 46.57523945 46 52 C31.31658439 61.56968272 17.68987256 60 0 60 C0 40.2 0 20.4 0 0 Z " fill="#171932" transform="translate(121,142)"/>
<path d="M0 0 C2.3384384 2.3384384 2.58082238 4.14288321 3.24145508 7.30688477 C5.72614956 19.17548289 10.8898879 27.88673907 20 36 C18.50230905 39.17892246 16.69985417 42.01711031 14.75 44.9375 C8.76134341 54.33220502 4.68890296 63.53895592 2.640625 74.515625 C2.42921875 75.33546875 2.2178125 76.1553125 2 77 C1.01 77.495 1.01 77.495 0 78 C-0.25652344 76.97003906 -0.51304687 75.94007813 -0.77734375 74.87890625 C-2.91966133 66.74599828 -5.54057375 59.25114748 -9.5 51.8125 C-9.86730225 51.11906494 -10.23460449 50.42562988 -10.61303711 49.71118164 C-12.42496171 46.42699329 -14.31071104 43.52728993 -16.78125 40.69921875 C-19 38 -19 38 -19 35 C-17.4609375 33.52734375 -17.4609375 33.52734375 -15.375 31.9375 C-5.61515188 23.74959202 -2.11008752 12.11438484 0 0 Z " fill="#171932" transform="translate(136,430)"/>
<path d="M0 0 C0.33 0 0.66 0 1 0 C1.22042969 1.30710937 1.22042969 1.30710937 1.4453125 2.640625 C4.1299164 16.89679743 9.75830597 26.82018932 20 37 C19.49210937 37.65484375 18.98421875 38.3096875 18.4609375 38.984375 C10.87723756 49.03916818 5.99564103 58.75381916 2.859375 70.96875 C2.12866656 73.54615794 1.30055133 75.67269763 0 78 C-0.391875 76.783125 -0.78375 75.56625 -1.1875 74.3125 C-5.858605 60.40832297 -11.60844298 48.05170423 -20 36 C-19.35933594 35.44054687 -18.71867187 34.88109375 -18.05859375 34.3046875 C-7.79527398 24.7908501 -2.63897734 13.72268217 0 0 Z " fill="#171932" transform="translate(64,430)"/>
<path d="M0 0 C0.66 0 1.32 0 2 0 C2.22042969 1.43279297 2.22042969 1.43279297 2.4453125 2.89453125 C4.85442478 16.78154057 10.0734568 25.83080796 20 36 C18.69379729 39.64328109 17.10389221 42.37850044 14.75 45.4375 C7.74779508 55.26976274 4.22790666 66.23508937 2 78 C1.34 78 0.68 78 0 78 C-0.29390625 76.65421875 -0.29390625 76.65421875 -0.59375 75.28125 C-4.00491689 61.04845024 -10.05300949 48.63108767 -19 37 C-17.7315625 35.5459375 -17.7315625 35.5459375 -16.4375 34.0625 C-15.28911299 32.71049827 -14.14347614 31.3561577 -13 30 C-12.40058594 29.30132812 -11.80117188 28.60265625 -11.18359375 27.8828125 C-4.18379563 19.38629729 -1.55940683 10.79273677 0 0 Z " fill="#171932" transform="translate(281,430)"/>
<path d="M0 0 C0.33 0 0.66 0 1 0 C1.24234375 1.0621875 1.4846875 2.124375 1.734375 3.21875 C4.75768561 16.11739508 8.64070341 27.98167299 20 36 C18.58354585 39.06783239 16.86016722 41.56975824 14.8125 44.25 C7.7077415 54.30642225 3.39147902 65.97427693 1 78 C-1.68487993 75.31512007 -2.18572237 72.30676633 -3.1875 68.75 C-6.71788288 56.92548898 -11.83706376 46.37869271 -20 37 C-19.319375 36.360625 -18.63875 35.72125 -17.9375 35.0625 C-7.58452276 24.65069902 -3.42300589 13.9833432 0 0 Z " fill="#171932" transform="translate(209,430)"/>
<path d="M0 0 C1.65 0 3.3 0 5 0 C5.23074219 1.03898437 5.46148437 2.07796875 5.69921875 3.1484375 C9.04383126 18.00697025 9.04383126 18.00697025 18 30 C18 30.66 18 31.32 18 32 C18.598125 32.2475 19.19625 32.495 19.8125 32.75 C22.29482087 34.16846907 23.36328035 35.69264738 25 38 C24.43152344 38.69222656 23.86304688 39.38445312 23.27734375 40.09765625 C13.93094774 51.94058542 8.62061234 64.40510925 5 79 C3.35 79 1.7 79 0 79 C-0.36351562 77.83984375 -0.72703125 76.6796875 -1.1015625 75.484375 C-5.56732979 61.49093673 -10.92796014 49.6969448 -20 38 C-18.6051584 34.70504256 -17.08182149 33.08331822 -14.25 30.9375 C-4.85100136 22.86662073 -2.47395124 11.5984655 0 0 Z M2 15 C1.56429688 15.92941406 1.12859375 16.85882813 0.6796875 17.81640625 C-3.07244833 25.6618775 -6.78674596 31.78674596 -13 38 C-12.56429688 38.65484375 -12.12859375 39.3096875 -11.6796875 39.984375 C-6.09627156 48.54077864 -1.07812542 57.21647459 2 67 C3.90279092 64.14581362 5.00616337 61.61757564 6.25 58.4375 C8.31145781 53.38478739 10.7251923 48.84277401 13.66796875 44.25390625 C15.05643002 41.90451577 16.04947432 39.55425621 17 37 C16.48050781 36.46632813 15.96101563 35.93265625 15.42578125 35.3828125 C10.967013 30.61910076 7.7071039 26.11005403 5.0078125 20.1640625 C3.96700739 17.78629972 3.96700739 17.78629972 2 15 Z " fill="#171932" transform="translate(352,429)"/>
</svg>
